<?xml version="1.0" encoding="utf-8"?>
<!-- Generator: Adobe Illustrator 24.2.3, SVG Export Plug-In . SVG Version: 6.00 Build 0)  -->
<svg version="1.1" id="Layer_1" xmlns="http://www.w3.org/2000/svg" xmlns:xlink="http://www.w3.org/1999/xlink" x="0px" y="0px"
	 viewBox="0 0 77 36" style="enable-background:new 0 0 77 36;" xml:space="preserve">
<g>
	<path d="M5.8,22.1C6.4,22.7,7.1,23,8,23c0.9,0,1.6-0.3,2.1-0.8c0.5-0.6,0.8-1.3,0.8-2.3v-7.9H14v7.9c0,1.2-0.2,2.2-0.7,3.1
		c-0.5,0.9-1.2,1.5-2.1,2s-2,0.7-3.2,0.7c-1.2,0-2.3-0.2-3.2-0.7s-1.6-1.1-2.1-2C2.2,22,2,21,2,19.8v-7.9H5v7.9
		C5,20.8,5.3,21.5,5.8,22.1z"/>
	<path d="M25,16c0.7,0.7,1,1.7,1,2.9v6.5h-3v-5.7c0-0.7-0.2-1.2-0.6-1.6c-0.4-0.4-0.9-0.6-1.5-0.6c-0.7,0-1.3,0.3-1.7,0.8
		c-0.4,0.5-0.6,1.1-0.6,1.9v5.1h-3V15h3v1.8c0.7-1.3,1.9-1.9,3.6-1.9C23.4,14.9,24.3,15.2,25,16z"/>
	<path d="M30.1,10.8c0.3,0.3,0.5,0.7,0.5,1.2c0,0.5-0.2,0.9-0.5,1.2c-0.3,0.3-0.7,0.5-1.2,0.5c-0.5,0-0.8-0.2-1.2-0.5
		s-0.5-0.7-0.5-1.2c0-0.5,0.2-0.9,0.5-1.2c0.3-0.3,0.7-0.5,1.2-0.5C29.4,10.4,29.8,10.5,30.1,10.8z M27.5,15h3v10.4h-3V15z"/>
	<path d="M36.7,13.7c-0.2,0.2-0.3,0.5-0.3,0.9v0.9h2.5v2.1h-2.5v7.9h-3v-7.9H32v-2.1h1.4v-1c0-0.7,0.2-1.4,0.5-1.9
		c0.3-0.5,0.8-0.9,1.4-1.2s1.2-0.4,1.9-0.4c0.7,0,1.4,0.1,2.1,0.4l-0.4,2.3c-0.2-0.1-0.4-0.1-0.6-0.2c-0.2-0.1-0.4-0.1-0.6-0.1
		C37.2,13.4,36.9,13.5,36.7,13.7z"/>
	<path d="M50.5,15v10.4h-3v-1.8c-0.7,1.3-1.9,2-3.5,2c-1.1,0-2.1-0.4-2.7-1.1c-0.7-0.7-1-1.7-1-2.9V15h3v5.7c0,0.7,0.2,1.2,0.5,1.5
		c0.3,0.4,0.8,0.6,1.4,0.6c0.7,0,1.3-0.3,1.7-0.8c0.4-0.5,0.6-1.1,0.6-1.9V15H50.5z"/>
	<path d="M61.7,16c0.7,0.7,1,1.7,1,2.9v6.5h-3v-5.7c0-0.7-0.2-1.2-0.6-1.6c-0.4-0.4-0.9-0.6-1.5-0.6c-0.7,0-1.3,0.3-1.7,0.8
		c-0.4,0.5-0.6,1.1-0.6,1.9v5.1h-3V15h3v1.8c0.7-1.3,1.9-1.9,3.6-1.9C60.1,14.9,61,15.2,61.7,16z"/>
	<path d="M75,11.1v14.3h-3v-1.5c-0.4,0.5-0.8,1-1.4,1.2s-1.2,0.4-1.9,0.4c-1,0-1.8-0.2-2.6-0.7c-0.7-0.4-1.3-1.1-1.7-1.9
		s-0.6-1.7-0.6-2.8c0-1,0.2-2,0.6-2.8c0.4-0.8,1-1.4,1.7-1.9c0.7-0.4,1.6-0.7,2.5-0.7c1.5,0,2.6,0.5,3.4,1.6v-5.5H75z M71.3,22.3
		c0.5-0.5,0.7-1.2,0.7-2.1c0-0.9-0.2-1.5-0.7-2.1s-1.1-0.8-1.9-0.8c-0.8,0-1.4,0.3-1.9,0.8c-0.5,0.5-0.7,1.2-0.7,2.1
		c0,0.9,0.3,1.5,0.7,2.1c0.5,0.5,1.1,0.8,1.9,0.8C70.2,23.1,70.9,22.9,71.3,22.3z"/>
</g>
</svg>
