<?xml version="1.0" encoding="utf-8"?>
<!-- Generator: Adobe Illustrator 24.2.3, SVG Export Plug-In . SVG Version: 6.00 Build 0)  -->
<svg version="1.1" id="Layer_1" xmlns="http://www.w3.org/2000/svg" xmlns:xlink="http://www.w3.org/1999/xlink" x="0px" y="0px"
	 viewBox="0 0 77 36" style="enable-background:new 0 0 77 36;" xml:space="preserve">
<style type="text/css">
	.st0{fill:#FFFFFF;}
</style>
<g>
	<path class="st0" d="M0.7,20.3V10.1h3v10c0,1.5,0.8,2.6,2.8,2.6s2.8-1.1,2.8-2.6v-10h3v10.2c0,3.3-2.5,5.3-5.8,5.3
		C3.2,25.6,0.7,23.6,0.7,20.3z"/>
	<path class="st0" d="M25.1,18.6v6.7h-2.8V19c0-1.5-0.9-2.2-2.1-2.2c-1.4,0-2.4,0.8-2.4,2.7v5.9h-2.8V14.4h2.8v1.2
		c0.7-1,1.8-1.5,3.2-1.5C23.2,14.1,25.1,15.7,25.1,18.6z"/>
	<path class="st0" d="M27.1,11.4c0-0.9,0.8-1.7,1.7-1.7c1,0,1.7,0.8,1.7,1.7c0,0.9-0.8,1.7-1.7,1.7C27.9,13.1,27.1,12.3,27.1,11.4z
		 M27.4,14.4h2.8v10.9h-2.8V14.4z"/>
	<path class="st0" d="M36.3,14.3v0.1h2.3v2.7h-2.3v8.2h-2.8v-8.2H32v-2.7h1.6v-0.1c0-3,1.6-4.8,5.1-4.5v2.7
		C37.2,12.4,36.3,12.8,36.3,14.3z"/>
	<path class="st0" d="M49.9,14.4v10.9h-2.8v-1.2c-0.7,1-1.8,1.5-3.2,1.5c-2.3,0-4.1-1.6-4.1-4.5v-6.7h2.8v6.3c0,1.5,0.9,2.2,2.1,2.2
		c1.4,0,2.4-0.8,2.4-2.7v-5.9H49.9z"/>
	<path class="st0" d="M62.6,18.6v6.7h-2.8V19c0-1.5-0.9-2.2-2.1-2.2c-1.4,0-2.4,0.8-2.4,2.7v5.9h-2.8V14.4h2.8v1.2
		c0.7-1,1.8-1.5,3.2-1.5C60.8,14.1,62.6,15.7,62.6,18.6z"/>
	<path class="st0" d="M76,10.1v15.2h-2.8V24c-0.8,1-1.9,1.6-3.5,1.6c-2.9,0-5.3-2.5-5.3-5.7c0-3.2,2.4-5.7,5.3-5.7
		c1.6,0,2.7,0.6,3.5,1.6v-5.6H76z M73.2,19.8c0-1.8-1.3-3.1-3-3.1c-1.7,0-3,1.2-3,3.1c0,1.8,1.3,3.1,3,3.1
		C71.9,22.9,73.2,21.7,73.2,19.8z"/>
</g>
</svg>
